PathFileType	4	(X/Y/Z)	/Users/niels/Desktop/University/Third Semester/Perception and Action/Exam/Gymnastics Motion Tracking/Code for Gym Tracking/Analyzed Data/Webcam_Backflip/id1_4_trajectory_Sports2D/id1_4_trajectory_Sports2D_px_person00.trc
DataRate	CameraRate	NumFrames	NumMarkers	Units	OrigDataRate	OrigDataStartFrame	OrigNumFrames
29.71698113207547	29.71698113207547	12	22	m	29.71698113207547	79	106
Frame#	Time	Hip			RHip			RKnee			RAnkle			RBigToe			RSmallToe			RHeel			LHip			LKnee			LAnkle			LBigToe			LSmallToe			LHeel			Neck			Head			Nose			RShoulder			RElbow			RWrist			LShoulder			LElbow			LWrist		
		X1	Y1	Z1	X2	Y2	Z2	X3	Y3	Z3	X4	Y4	Z4	X5	Y5	Z5	X6	Y6	Z6	X7	Y7	Z7	X8	Y8	Z8	X9	Y9	Z9	X10	Y10	Z10	X11	Y11	Z11	X12	Y12	Z12	X13	Y13	Z13	X14	Y14	Z14	X15	Y15	Z15	X16	Y16	Z16	X17	Y17	Z17	X18	Y18	Z18	X19	Y19	Z19	X20	Y20	Z20	X21	Y21	Z21	X22	Y22	Z22
79	2.658412698412698	0.5827670421016528	-0.7158424770668816	0.0	0.5685027875018138	-0.7199899932046175	0.0	0.6868784299798485	-0.7553401664411565	0.0	0.6517708583105344	-0.8668683442155806	0.0	0.7013866052444001	-0.8851721883075979	0.0	0.6877086269589603	-0.8886239345682015	0.0	0.6405292369276008	-0.8828780960582059	0.0	0.6075296113812313	-0.7103539598335588	0.0	0.7140384150447321	-0.7470545587471759	0.0	0.6684717030912657	-0.8533972190157029	0.0	0.7129259300529832	-0.8799561114882074	0.0	0.7069695691050321	-0.8743266074867255	0.0	0.6496899069022043	-0.8696934333183968	0.0	0.7037808773753949	-0.6397937328910236	0.0	0.7763950188292144	-0.6191567666235442	0.0	0.750746042281488	-0.6560340811224115	0.0	0.6651086999231305	-0.6473519499611597	0.0	0.6166462740550314	-0.7287036626279939	0.0	0.6004629132726008	-0.8151472515099657	0.0	0.6950047772385386	-0.6417017901945536	0.0	0.6737208743749479	-0.7160538194789985	0.0	0.6751339097386643	-0.7888372314635027	0.0
80	2.692063492063492	0.5844817243014523	-0.703566043360453	0.0	0.5700370589334068	-0.7060806289392917	0.0	0.6840403138909629	-0.7548252132469206	0.0	0.6512285393606769	-0.8679028537279606	0.0	0.7016284481281883	-0.8850211703769072	0.0	0.6885276933169546	-0.8885944980370544	0.0	0.6399503393818261	-0.8841562163130879	0.0	0.609210461111729	-0.699271863274045	0.0	0.7120505677056813	-0.7468658203022003	0.0	0.6692724216163628	-0.8545507369504711	0.0	0.7119323673708853	-0.8803408985059519	0.0	0.7075510627136823	-0.8739136442550028	0.0	0.6531726420418256	-0.870417361895446	0.0	0.7048598990952947	-0.6230522724221349	0.0	0.7759104023491424	-0.5981050244622389	0.0	0.7521378388921653	-0.6357260656012984	0.0	0.6669231977698651	-0.6290799276971968	0.0	0.6263270546288032	-0.7148847419239751	0.0	0.6266299736236587	-0.7992100026500234	0.0	0.698086920779459	-0.6290484312236689	0.0	0.6833899346687407	-0.7046391694502636	0.0	0.6896939812129209	-0.7755401241286578	0.0
81	2.7257142857142855	0.5870209307502843	-0.6918466836437626	0.0	0.5723154261766623	-0.6928904146222722	0.0	0.6802164932308755	-0.7541195192750489	0.0	0.6505032134146208	-0.8691219087159356	0.0	0.7021059783714049	-0.884458769407687	0.0	0.6896432067169356	-0.8883035899752517	0.0	0.6393279896343361	-0.8854177894908106	0.0	0.6113333524135477	-0.6887769210754182	0.0	0.7092825504662915	-0.7465398516285301	0.0	0.6689290648592605	-0.8559335932046634	0.0	0.7112609483018203	-0.8801296610256762	0.0	0.7079442521148093	-0.873245077853651	0.0	0.6547972748424367	-0.8714367511795821	0.0	0.7051674015140732	-0.6048106839483456	0.0	0.7740030690367712	-0.5746748880559512	0.0	0.7526828638233967	-0.6135408469560737	0.0	0.6682392376812745	-0.6097400144176544	0.0	0.6346846427930505	-0.6979949230154371	0.0	0.6523658597153946	-0.7776884469646417	0.0	0.7004827391318323	-0.6148194820299095	0.0	0.6905532555932653	-0.6905846151505876	0.0	0.7029697539283009	-0.7591711486375692	0.0
82	2.759365079365079	0.5900367494902099	-0.6801024065130127	0.0	0.5749493785891036	-0.6799125834190325	0.0	0.6755549146769445	-0.752886294459912	0.0	0.649564528682946	-0.8700602653969103	0.0	0.7026819983585035	-0.8832042580468028	0.0	0.6908083065143623	-0.8875797984303333	0.0	0.6387390773857281	-0.8862991291835814	0.0	0.6137797203684366	-0.6780710123826481	0.0	0.7058245420169557	-0.7454768336946429	0.0	0.6673866071718307	-0.8568860148348157	0.0	0.7107901659328342	-0.8790182708527008	0.0	0.7078925848824125	-0.8720789985465879	0.0	0.654533330863776	-0.8721251012036327	0.0	0.7047831549413511	-0.5853884480066447	0.0	0.7710631832112051	-0.5496269195065504	0.0	0.7523945450199513	-0.5901514854597193	0.0	0.6692224970283178	-0.589685798972288	0.0	0.6409767167211319	-0.6782769457696952	0.0	0.6749630411492623	-0.7519771370534569	0.0	0.7021743843859033	-0.5991265896270408	0.0	0.6948866836457406	-0.673885735892064	0.0	0.71294541946628	-0.7400543032044022	0.0
83	2.7930158730158725	0.5932121588078049	-0.6680458136731618	0.0	0.5776552762824536	-0.6668632293699642	0.0	0.6700433666709009	-0.7506614226842057	0.0	0.6484554060767671	-0.8700550830104169	0.0	0.7031934766534679	-0.8808930639897952	0.0	0.6917548399345506	-0.8860626685254471	0.0	0.6382116224006433	-0.8862534092259597	0.0	0.6163308983401407	-0.6667332772508793	0.0	0.7017924167991058	-0.7429386527416453	0.0	0.6650019554478155	-0.8564317820103828	0.0	0.7101762833950456	-0.8766138357100114	0.0	0.7072093496198684	-0.8699725789807967	0.0	0.6529774791283527	-0.8715491343895178	0.0	0.7037969511037401	-0.5653024684966722	0.0	0.767386497315635	-0.5238898121134921	0.0	0.75132473359141	-0.5663255769313357	0.0	0.6698971155638349	-0.5693279059251354	0.0	0.644641763199784	-0.6564497202551647	0.0	0.6922461468872376	-0.7238146409449528	0.0	0.7032379013957284	-0.5823538764431392	0.0	0.6966533093763738	-0.6551787966827122	0.0	0.7188279930896405	-0.7190083764087384	0.0
84	2.826666666666666	0.596332412728547	-0.6556159111629052	0.0	0.5802928358894979	-0.6536681524020839	0.0	0.6638259683623748	-0.7470645211153687	0.0	0.6472646450060681	-0.8684721240980094	0.0	0.7034746145787512	-0.8772325087833345	0.0	0.6922851895417758	-0.8833053796214595	0.0	0.6377384683296419	-0.8847286632026328	0.0	0.6187932761089404	-0.6547209789310671	0.0	0.6975144136260111	-0.7384380230542844	0.0	0.6621066531306478	-0.8536992630075215	0.0	0.7090403615988741	-0.8725808937672954	0.0	0.7056915363347291	-0.8664743885340315	0.0	0.6505913890485151	-0.8689149763940381	0.0	0.7023367727834569	-0.5452123658915071	0.0	0.7632086605116011	-0.49850815131935255	0.0	0.7495510635721441	-0.5428462247369081	0.0	0.6701748316140468	-0.5492142172816242	0.0	0.6454999458338821	-0.6335827897254624	0.0	0.7031179947885285	-0.6949149395707064	0.0	0.703807681654461	-0.5650365707785127	0.0	0.6964260959804108	-0.6353926966137289	0.0	0.7208744194265799	-0.6970643539515846	0.0
85	2.86031746031746	0.5992528787461816	-0.6429279458779364	0.0	0.5827972504069656	-0.6404658692842081	0.0	0.6574337005245141	-0.7419338683487243	0.0	0.6461060758805777	-0.8649633196106925	0.0	0.7034168696768713	-0.8722001439519653	0.0	0.6923307011839326	-0.8790556778687902	0.0	0.637343991249216	-0.8814029415733509	0.0	0.6210363001998465	-0.6422937431191741	0.0	0.6934432586970523	-0.731972511041199	0.0	0.658606217247349	-0.8483494483967106	0.0	0.7069564055449267	-0.8667835227086185	0.0	0.7030083453069618	-0.8613211501402332	0.0	0.6472089672370633	-0.863917425055792	0.0	0.7005718276746419	-0.5258033544912505	0.0	0.7587789422438306	-0.4744598551692038	0.0	0.7471869197703047	-0.5204102864787008	0.0	0.6699268570514594	-0.5299935173704132	0.0	0.6438123117402895	-0.6109901524548313	0.0	0.7076107154477851	-0.6673063877936949	0.0	0.7040191040482406	-0.5477521736308673	0.0	0.6948600216499088	-0.6155764685537995	0.0	0.7198438401894448	-0.6755550862960626	0.0
86	2.8939682539682536	0.6018400423805089	-0.63024993693797	0.0	0.5850973378896643	-0.627564386143351	0.0	0.6516082683824522	-0.7353382848334876	0.0	0.6451160219886247	-0.8595554430016403	0.0	0.7030480571886292	-0.8661154389513069	0.0	0.6919426567978397	-0.8734570686410646	0.0	0.637109844095748	-0.8762885664539986	0.0	0.6229853110698129	-0.629888564761896	0.0	0.6898147668371865	-0.7239933386402442	0.0	0.6540683371280254	-0.8406682162914191	0.0	0.703548770586986	-0.8593524105527642	0.0	0.698862929663602	-0.854573750971476	0.0	0.642264023833365	-0.856838084986233	0.0	0.6986819859139037	-0.5076988457544516	0.0	0.7543873781519814	-0.4524849362691981	0.0	0.7444119292423608	-0.49959295622719735	0.0	0.6690331146920888	-0.5122963178597744	0.0	0.6401941367193256	-0.5900350781457525	0.0	0.7066190858987466	-0.6432367677393619	0.0	0.7039764082146135	-0.5310604464445052	0.0	0.6925307006705914	-0.5967421348688018	0.0	0.7165433565815327	-0.655953844249485	0.0
87	2.9276190476190473	0.6039506015813664	-0.6179796897349548	0.0	0.5870635672957815	-0.6153459557999826	0.0	0.6470327149405851	-0.7275342816850364	0.0	0.6444249152639286	-0.8525220760990213	0.0	0.7025147523717645	-0.8595081446295925	0.0	0.6912385729353162	-0.8669574160629009	0.0	0.6371061376558381	-0.869634858554051	0.0	0.6246115251149398	-0.618007131528938	0.0	0.6865249213580245	-0.7152322528967617	0.0	0.6481866684328332	-0.8313668382327729	0.0	0.6986909607328516	-0.8506908191391758	0.0	0.6932944195032559	-0.8466579907478352	0.0	0.6354656671276835	-0.8483968573861811	0.0	0.6968204765547147	-0.491449646271953	0.0	0.7503507292444352	-0.43308285886240355	0.0	0.7414660566979688	-0.4808716142709964	0.0	0.6674267022654804	-0.4966699087884664	0.0	0.6354360739512226	-0.5718813845261377	0.0	0.701488517549442	-0.6244260481625838	0.0	0.7037586220291864	-0.5155335443813356	0.0	0.6898616775748307	-0.5797329408674488	0.0	0.71169615395594	-0.6394270580691919	0.0
88	2.961269841269841	0.6054414638188814	-0.6066321590646347	0.0	0.5885282247867246	-0.6042346349972693	0.0	0.6442204097556657	-0.7189145463722598	0.0	0.6441132474274274	-0.8442403330326009	0.0	0.7019297560742348	-0.8529091388688156	0.0	0.6903302079271828	-0.8600772378486108	0.0	0.6373051245521656	-0.8618135989324097	0.0	0.6259215644044561	-0.6071813910476206	0.0	0.6832535451240993	-0.7064811108252588	0.0	0.6411695579029353	-0.8214231032141981	0.0	0.6926463512834522	-0.8415142941473376	0.0	0.6868362987414078	-0.8383825877716489	0.0	0.6273356975458423	-0.8395839489694018	0.0	0.6951027851751599	-0.47752187606623614	0.0	0.7469448441436083	-0.41659731625342933	0.0	0.7386110850194717	-0.46463291550678504	0.0	0.6651471488348436	-0.4835669477921436	0.0	0.6302893409009442	-0.5573337519953939	0.0	0.6935426563814866	-0.611542521157398	0.0	0.7034446495011426	-0.5017903895316004	0.0	0.6871709722699517	-0.5652616227866395	0.0	0.7059883698322662	-0.626637063330203	0.0
89	2.9949206349206343	0.6062068113286152	-0.5968240873137375	0.0	0.5893950226315021	-0.5947218614879134	0.0	0.6434635603826065	-0.7100225037904714	0.0	0.6441921821095141	-0.8352167969810058	0.0	0.701246955449075	-0.846737928567298	0.0	0.6892903845872874	-0.8533074034010847	0.0	0.6375785697153389	-0.8533550531376806	0.0	0.626922945138937	-0.5979766517235805	0.0	0.6795846753296204	-0.6984533122906361	0.0	0.6337612685928117	-0.8120340354467209	0.0	0.6861066296264658	-0.8329060696939908	0.0	0.6803871343739626	-0.8308777980197519	0.0	0.6191161635095938	-0.8315609232889138	0.0	0.6936181210653611	-0.46627850819944067	0.0	0.7442844005456349	-0.4032908286258006	0.0	0.736053843716756	-0.4512047791559519	0.0	0.6623881672461197	-0.4733233625310352	0.0	0.6252998948481581	-0.5467817128608016	0.0	0.6838154114014853	-0.6043109232471746	0.0	0.7031299100284922	-0.4904660776740186	0.0	0.6847533557601652	-0.553988119739285	0.0	0.70008684150504	-0.6178222421325429	0.0
90	3.028571428571428	0.6062372315016746	-0.5892047424513935	0.0	0.5897288646529348	-0.5873223692755414	0.0	0.6447273273181126	-0.7015987546982663	0.0	0.6446007154754723	-0.8262219888482708	0.0	0.7002990454115386	-0.8413318515896189	0.0	0.6881538973869592	-0.8471576538832706	0.0	0.637769082004936	-0.8450351557940977	0.0	0.6275685042625092	-0.5909418933931753	0.0	0.6751114820650477	-0.6918130547590093	0.0	0.6269372610206101	-0.8044649134034456	0.0	0.6800175080642756	-0.8261677963565502	0.0	0.6748077327455705	-0.8252409182348778	0.0	0.6121090828760846	-0.8254421686885797	0.0	0.6924280620203557	-0.45800388257073094	0.0	0.7422473843003137	-0.39340100598026917	0.0	0.733855226153589	-0.44093836142482623	0.0	0.659493635585869	-0.46616172997474853	0.0	0.6207517726829961	-0.5402201163794562	0.0	0.6730851850204242	-0.6019553135107338	0.0	0.702911601375713	-0.4821676353876501	0.0	0.6828905137918221	-0.5464768091549899	0.0	0.6946076528650466	-0.6129682756581076	0.0
